<svg xmlns="http://www.w3.org/2000/svg" width="20" height="19.999" viewBox="0 0 20 19.999">
                    <g id="Cash" transform="translate(0)">
                      <path id="Icon_awesome-cash-register" data-name="Icon awesome-cash-register" d="M19.961,14.8l-1.043-6.25A1.25,1.25,0,0,0,17.684,7.5H8.122V5h3.75a.627.627,0,0,0,.625-.625V.625A.627.627,0,0,0,11.871,0h-10a.627.627,0,0,0-.625.625v3.75A.627.627,0,0,0,1.872,5h3.75V7.5H2.305A1.253,1.253,0,0,0,1.071,8.543L.028,14.792a2.423,2.423,0,0,0-.035.41v3.547A1.249,1.249,0,0,0,1.243,20h17.5a1.249,1.249,0,0,0,1.25-1.25V15.206A2.074,2.074,0,0,0,19.961,14.8ZM10.934,9.687a.627.627,0,0,1,.625-.625h.625a.627.627,0,0,1,.625.625v.625a.627.627,0,0,1-.625.625h-.625a.627.627,0,0,1-.625-.625Zm-1.25,2.5h.625a.627.627,0,0,1,.625.625v.625a.627.627,0,0,1-.625.625H9.684a.627.627,0,0,1-.625-.625v-.625A.627.627,0,0,1,9.684,12.187ZM8.434,9.062a.627.627,0,0,1,.625.625v.625a.627.627,0,0,1-.625.625H7.809a.627.627,0,0,1-.625-.625V9.687a.627.627,0,0,1,.625-.625ZM3.122,3.125V1.875h7.5v1.25Zm1.562,7.812H4.059a.627.627,0,0,1-.625-.625V9.687a.627.627,0,0,1,.625-.625h.625a.627.627,0,0,1,.625.625v.625A.627.627,0,0,1,4.684,10.937Zm.625,2.5v-.625a.627.627,0,0,1,.625-.625h.625a.627.627,0,0,1,.625.625v.625a.627.627,0,0,1-.625.625H5.934A.627.627,0,0,1,5.309,13.437Zm8.437,4.375a.313.313,0,0,1-.312.312H6.559a.313.313,0,0,1-.312-.312v-.625a.313.313,0,0,1,.312-.312h6.875a.313.313,0,0,1,.312.312Zm.937-4.375a.627.627,0,0,1-.625.625h-.625a.627.627,0,0,1-.625-.625v-.625a.627.627,0,0,1,.625-.625h.625a.627.627,0,0,1,.625.625Zm1.875-3.125a.627.627,0,0,1-.625.625h-.625a.627.627,0,0,1-.625-.625V9.687a.627.627,0,0,1,.625-.625h.625a.627.627,0,0,1,.625.625Z" transform="translate(0.007)"/>
                    </g>
                  </svg>