<svg id="product" xmlns="http://www.w3.org/2000/svg" width="11.643" height="16.087" viewBox="0 0 11.643 16.087">
                                <path id="Path_2091" data-name="Path 2091" d="M25.229,958.361a.366.366,0,0,1,.331.366v.377h1.08a.366.366,0,0,1,.366.366v.457h2.428a.366.366,0,0,1,.366.366v13.791a.366.366,0,0,1-.366.366H18.522a.366.366,0,0,1-.366-.366V960.292a.366.366,0,0,1,.366-.366h2.434v-.457a.366.366,0,0,1,.366-.366H22.4v-.377a.366.366,0,0,1,.366-.366h2.462Zm-.4.731h-1.7v.377a.366.366,0,0,1-.366.366h-1.08v.925h4.587v-.925h-1.08a.366.366,0,0,1-.366-.366Zm4.239,1.565H27.005v.468a.366.366,0,0,1-.366.366H21.321a.366.366,0,0,1-.366-.366v-.468H18.888v13.059h10.18Z" transform="translate(-18.156 -958.361)"/>
                                <g id="Icon_feather-box" data-name="Icon feather-box" transform="translate(2.889 6.34)">
                                  <path id="Path_2105" data-name="Path 2105" d="M10.279,7.5V4.929a.642.642,0,0,0-.321-.555L7.711,3.089a.642.642,0,0,0-.642,0L4.821,4.373a.642.642,0,0,0-.321.555V7.5a.642.642,0,0,0,.321.555L7.068,9.337a.642.642,0,0,0,.642,0L9.958,8.053A.642.642,0,0,0,10.279,7.5Z" transform="translate(-4.5 -3.003)" fill="none" stroke="#000" stroke-linecap="round" stroke-linejoin="round" stroke-width="0.5"/>
                                  <path id="Path_2106" data-name="Path 2106" d="M4.905,10.44l2.8,1.621,2.8-1.621" transform="translate(-4.818 -8.848)" fill="none" stroke="#000" stroke-linecap="round" stroke-linejoin="round" stroke-width="0.5"/>
                                  <path id="Path_2107" data-name="Path 2107" d="M18,21.236V18" transform="translate(-15.11 -14.79)" fill="none" stroke="#000" stroke-linecap="round" stroke-linejoin="round" stroke-width="0.5"/>
                                </g>
                              </svg>