<svg id="Purchase_order" data-name="Purchase order" xmlns="http://www.w3.org/2000/svg" width="11.607" height="16.039" viewBox="0 0 11.607 16.039">
                                <path id="Path_2091" data-name="Path 2091" d="M25.207,958.361a.365.365,0,0,1,.33.365v.376h1.076a.365.365,0,0,1,.365.365v.456H29.4a.365.365,0,0,1,.365.365v13.749a.365.365,0,0,1-.365.365H18.521a.365.365,0,0,1-.365-.365V960.286a.364.364,0,0,1,.364-.365h2.426v-.456a.365.365,0,0,1,.364-.365h1.077v-.376a.364.364,0,0,1,.364-.365h2.455Zm-.4.729H23.117v.376a.364.364,0,0,1-.364.365H21.676v.923H26.25v-.923H25.173a.365.365,0,0,1-.365-.364Zm4.226,1.561H26.979v.467a.365.365,0,0,1-.364.365h-5.3a.365.365,0,0,1-.365-.365v-.467H18.885v13.02H29.035Z" transform="translate(-18.156 -958.361)"/>
                                <path id="Path_2092" data-name="Path 2092" d="M35.211,984.363a.365.365,0,1,1,0,.729H27.927a.365.365,0,1,1,0-.729Z" transform="translate(-25.848 -979.623)"/>
                                <path id="Path_2093" data-name="Path 2093" d="M35.246,1000.108a.365.365,0,1,1-.034.729H27.927a.365.365,0,1,1,0-.729h7.319Z" transform="translate(-25.848 -992.5)"/>
                                <path id="Path_2094" data-name="Path 2094" d="M35.211,1015.83a.365.365,0,1,1,0,.729H27.927a.365.365,0,0,1,0-.729Z" transform="translate(-25.848 -1005.355)"/>
                                <path id="Path_2095" data-name="Path 2095" d="M32.876,1031.578a.365.365,0,0,1-.034.729H27.927a.365.365,0,0,1,0-.729h4.949Z" transform="translate(-25.848 -1018.234)"/>
                                <path id="Path_2096" data-name="Path 2096" d="M63.239,1027.4a.365.365,0,0,0-.321.187l-.612,1.061-.076-.132a.365.365,0,0,0-.631.365l.392.679a.365.365,0,0,0,.631,0l.928-1.608a.365.365,0,0,0-.31-.551Z" transform="translate(-53.641 -1014.816)"/>
                              </svg>