<svg xmlns="http://www.w3.org/2000/svg" width="13.801" height="17" viewBox="0 0 13.801 17">
                                <g id="reconciliation" transform="translate(0.5 0.5)">
                                  <path id="Path_368" data-name="Path 368" d="M11.2,2H5.6A1.6,1.6,0,0,0,4,3.6V16.4A1.6,1.6,0,0,0,5.6,18h9.6a1.6,1.6,0,0,0,1.6-1.6V7.6Z" transform="translate(-4 -2)" fill="none" stroke="#000" stroke-linecap="round" stroke-linejoin="round" stroke-width="1"/>
                                  <path id="Path_369" data-name="Path 369" d="M13,2V9h7" transform="translate(-7.199 -2)" fill="none" stroke="#000" stroke-linecap="round" stroke-linejoin="round" stroke-width="1"/>
                                  <path id="Icon_material-check-circle" data-name="Icon material-check-circle" d="M6.057,3A3.057,3.057,0,1,0,9.113,6.057,3.058,3.058,0,0,0,6.057,3ZM5.445,7.585,3.917,6.057l.431-.431,1.1,1.094L7.765,4.4l.431.434Z" transform="translate(0.301 5.15)"/>
                                </g>
                              </svg>