<svg id="report" xmlns="http://www.w3.org/2000/svg" width="11.646" height="16.092" viewBox="0 0 11.646 16.092">
                                <g id="noun_report_2119965" transform="translate(3.252 5.756)">
                                  <g id="_04" data-name="04" transform="translate(0 0)">
                                    <g id="noun_report_2116357" transform="translate(0)">
                                      <g id="Group_10110" data-name="Group 10110" transform="translate(0)">
                                        <path id="Path_2118" data-name="Path 2118" d="M23.393,10.7a2.678,2.678,0,1,0,2.678,2.678A2.682,2.682,0,0,0,23.393,10.7Zm0,.6a2.075,2.075,0,0,1,2.06,1.785H23.365a.3.3,0,0,0-.228.446l1.032,1.785a2.083,2.083,0,1,1-.776-4.017Zm.516,2.38h1.543a2.073,2.073,0,0,1-.772,1.339ZM21.282,17.69a.3.3,0,0,0,.028.6h4.166a.3.3,0,1,0,0-.6H21.282Z" transform="translate(-20.715 -10.698)"/>
                                      </g>
                                    </g>
                                  </g>
                                </g>
                                <g id="Group_10109" data-name="Group 10109">
                                  <path id="Path_2091" data-name="Path 2091" d="M25.231,958.361a.366.366,0,0,1,.331.366v.377h1.08a.366.366,0,0,1,.366.366v.457h2.429a.366.366,0,0,1,.366.366v13.794a.366.366,0,0,1-.366.366H18.522a.366.366,0,0,1-.366-.366V960.293a.366.366,0,0,1,.366-.366h2.434v-.457a.366.366,0,0,1,.366-.366H22.4v-.377a.366.366,0,0,1,.366-.366h2.463Zm-.4.731h-1.7v.377a.366.366,0,0,1-.366.366h-1.08v.926h4.589v-.926H25.2a.366.366,0,0,1-.366-.366Zm4.24,1.566H27.008v.469a.366.366,0,0,1-.366.366h-5.32a.366.366,0,0,1-.366-.366v-.469H18.888v13.063H29.071Z" transform="translate(-18.156 -958.361)"/>
                                </g>
                              </svg>