<svg xmlns="http://www.w3.org/2000/svg" width="15.4" height="17" viewBox="0 0 15.4 17">
                                <g id="requests" transform="translate(0.5 0.5)">
                                  <g id="Group_9931" data-name="Group 9931" transform="translate(-47 -332)">
                                    <g id="calendar" transform="translate(44 330)">
                                      <rect id="Rectangle_16847" data-name="Rectangle 16847" width="14.4" height="14" rx="2" transform="translate(3 4)" fill="none" stroke="#000" stroke-linecap="round" stroke-linejoin="round" stroke-width="1"/>
                                      <line id="Line_142" data-name="Line 142" y2="4" transform="translate(13.4 2)" fill="none" stroke="#000" stroke-linecap="round" stroke-linejoin="round" stroke-width="1"/>
                                      <line id="Line_143" data-name="Line 143" y2="4" transform="translate(7 2)" fill="none" stroke="#000" stroke-linecap="round" stroke-linejoin="round" stroke-width="1"/>
                                    </g>
                                  </g>
                                  <path id="Icon_metro-bubbles" data-name="Icon metro-bubbles" d="M11.965,12.923a1.008,1.008,0,0,0,.553.9v.138a2.055,2.055,0,0,1-1.772-.622,2.776,2.776,0,0,1-.715.093,2.361,2.361,0,0,1-2.487-2.21,2.361,2.361,0,0,1,2.487-2.21,2.361,2.361,0,0,1,2.487,2.21,2.039,2.039,0,0,1-.461,1.282A1,1,0,0,0,11.965,12.923ZM6.992,5.143c2.4,0,4.36,1.559,4.419,3.5a3.388,3.388,0,0,0-1.38-.289,3.29,3.29,0,0,0-2.194.813,2.728,2.728,0,0,0-.949,2.053,2.649,2.649,0,0,0,.239,1.1l-.136,0a5.46,5.46,0,0,1-.689-.044,4.305,4.305,0,0,1-3.179,1.145V13.2a1.759,1.759,0,0,0,1.105-1.421,1.667,1.667,0,0,0-.019-.248A3.381,3.381,0,0,1,2.571,8.735C2.571,6.751,4.551,5.143,6.992,5.143Z" transform="translate(0.016 -0.07)"/>
                                </g>
                              </svg>