<svg id="suppliers" xmlns="http://www.w3.org/2000/svg" width="11.643" height="16.088" viewBox="0 0 11.643 16.088">
                                <g id="Group_10107" data-name="Group 10107">
                                  <path id="Path_2091" data-name="Path 2091" d="M25.229,958.361a.366.366,0,0,1,.331.366v.377h1.08a.366.366,0,0,1,.366.366v.457h2.428a.366.366,0,0,1,.366.366v13.791a.366.366,0,0,1-.366.366H18.522a.366.366,0,0,1-.366-.366V960.292a.366.366,0,0,1,.366-.366h2.434v-.457a.366.366,0,0,1,.366-.366H22.4v-.377a.366.366,0,0,1,.366-.366h2.462Zm-.4.731h-1.7v.377a.366.366,0,0,1-.366.366h-1.08v.925h4.587v-.925h-1.08a.366.366,0,0,1-.366-.366Zm4.239,1.565H27.006v.468a.366.366,0,0,1-.366.366H21.321a.366.366,0,0,1-.366-.366v-.469H18.888v13.06h10.18Z" transform="translate(-18.156 -958.361)"/>
                                </g>
                                <g id="noun_supplier_1127126" transform="translate(2.369 5.461)">
                                  <path id="Path_2117" data-name="Path 2117" d="M41.381,40.2h-.552a1.031,1.031,0,0,0-.712-.586V35.912a.239.239,0,0,0-.238-.238H38.259v.871H36.852v-.871H35.474V34.238A.237.237,0,0,0,35.236,34h-1a.238.238,0,1,0,0,.476H35v5.143a1.016,1.016,0,1,0,1.264,1.062h2.59a1.03,1.03,0,0,0,2.052,0h.476a.238.238,0,0,0,0-.476Zm-6.145.938a.538.538,0,1,1,.557-.538A.552.552,0,0,1,35.236,41.143Zm4.643,0a.538.538,0,1,1,.557-.538A.549.549,0,0,1,39.878,41.143Z" transform="translate(-34 -34)"/>
                                </g>
                              </svg>